<?xml version="1.0" encoding="UTF-8" standalone="no"?>
<!DOCTYPE svg PUBLIC "-//W3C//DTD SVG 1.1//EN" "http://www.w3.org/Graphics/SVG/1.1/DTD/svg11.dtd">
<svg width="100%" height="100%" viewBox="0 0 300 100" version="1.1" xmlns="http://www.w3.org/2000/svg" xmlns:xlink="http://www.w3.org/1999/xlink" xml:space="preserve" xmlns:serif="http://www.serif.com/" style="fill-rule:evenodd;clip-rule:evenodd;stroke-linejoin:round;stroke-miterlimit:1.41421;">
    <g transform="matrix(1,0,0,1,-20.3892,11.4354)">
        <path d="M53.089,63.558C64.091,63.558 72.618,58.03 72.618,48.032C72.618,37.829 64.624,35.095 55.758,33.028C48.62,31.427 44.952,30.627 44.952,27.293C44.952,24.626 47.687,22.825 51.822,22.825C56.224,22.825 59.026,24.892 59.493,28.56L71.019,28.56C70.553,18.562 62.559,13.9 52.222,13.9C41.554,13.9 33.293,18.363 33.293,28.56C33.293,38.563 42.02,41.097 50.288,43.03C56.825,44.631 60.693,45.431 60.693,49.232C60.693,52.833 56.891,54.233 53.023,54.233C47.353,54.233 44.219,52.233 43.686,47.432L31.827,47.432C32.093,57.963 40.422,63.558 53.089,63.558Z" style="fill:rgb(35,31,32);fill-rule:nonzero;"/>
        <path d="M93.756,55.767C89.02,55.767 86.552,51.632 86.552,45.429C86.552,39.227 89.02,35.025 93.756,35.025C98.492,35.025 101.027,39.227 101.027,45.429C101.027,51.632 98.492,55.767 93.756,55.767ZM93.823,63.492C104.824,63.492 112.018,55.7 112.018,45.429C112.018,35.159 104.824,27.367 93.823,27.367C82.888,27.367 75.56,35.159 75.56,45.429C75.56,55.7 82.888,63.492 93.823,63.492Z" style="fill:rgb(35,31,32);fill-rule:nonzero;"/>
        <rect x="115.76" y="14.767" width="10.992" height="47.658" style="fill:rgb(35,31,32);fill-rule:nonzero;"/>
        <path d="M148.689,55.767C143.953,55.767 141.485,51.632 141.485,45.429C141.485,39.227 143.953,35.025 148.689,35.025C153.425,35.025 155.96,39.227 155.96,45.429C155.96,51.632 153.425,55.767 148.689,55.767ZM148.756,63.492C159.757,63.492 166.952,55.7 166.952,45.429C166.952,35.159 159.757,27.367 148.756,27.367C137.821,27.367 130.493,35.159 130.493,45.429C130.493,55.7 137.821,63.492 148.756,63.492Z" style="fill:rgb(35,31,32);fill-rule:nonzero;"/>
        <path d="M174.493,62.425L180.485,62.425L180.485,45.538L188.152,37.862L206.085,62.425L213.085,62.425L192.218,33.79L211.485,14.7L203.952,14.7L180.485,38.396L180.485,14.7L174.493,14.7L174.493,62.425Z" style="fill:rgb(35,31,32);fill-rule:nonzero;"/>
        <path d="M228.689,63.358C236.493,63.358 241.888,59.166 243.486,51.762L238.227,51.762C237.026,56.432 233.691,58.833 228.689,58.833C221.753,58.833 217.952,53.496 217.552,46.492L244.218,46.492C244.218,35.095 238.693,27.1 228.356,27.1C218.552,27.1 212.027,35.228 212.027,45.228C212.027,55.231 218.152,63.358 228.689,63.358ZM228.356,31.358C234.558,31.358 238.093,35.562 238.427,42.433L217.685,42.433C218.485,36.162 221.953,31.358 228.356,31.358Z" style="fill:rgb(35,31,32);fill-rule:nonzero;"/>
        <path d="M253.891,73.825C258.09,73.825 260.756,72.361 263.556,65.233L278.285,27.967L272.553,27.967L264.689,49.433C263.622,52.3 262.422,56.167 262.422,56.167L262.289,56.167C262.289,56.167 261.023,52.3 259.956,49.433L251.825,27.967L245.96,27.967L259.423,61.433L258.09,64.833C256.757,68.167 255.224,69.033 252.958,69.033C251.159,69.033 250.026,68.7 249.293,68.3L249.026,68.3L249.026,73.093C250.492,73.692 251.825,73.825 253.891,73.825Z" style="fill:rgb(35,31,32);fill-rule:nonzero;"/>
        <path d="M294.823,63.425C302.76,63.425 308.418,59.898 308.418,52.965C308.418,45.029 302.627,43.495 295.69,42.095C289.753,40.895 286.418,40.161 286.418,36.426C286.418,33.692 288.419,31.492 293.355,31.492C298.491,31.492 300.959,33.492 301.493,38.027L307.021,38.027C306.222,31.292 302.026,27.233 293.489,27.233C285.487,27.233 281.093,30.959 281.093,36.693C281.093,44.229 287.152,45.629 293.956,47.03C300.292,48.363 302.96,49.364 302.96,53.232C302.96,56.433 300.626,58.9 294.956,58.9C289.82,58.9 285.819,57.233 285.087,51.231L279.56,51.231C280.093,58.967 285.353,63.425 294.823,63.425Z" style="fill:rgb(35,31,32);fill-rule:nonzero;"/>
    </g>
</svg>
